<?xml version="1.0" encoding="utf-8"?>
<!-- Generator: Adobe Illustrator 16.0.0, SVG Export Plug-In . SVG Version: 6.00 Build 0)  -->
<!DOCTYPE svg PUBLIC "-//W3C//DTD SVG 1.1//EN" "http://www.w3.org/Graphics/SVG/1.1/DTD/svg11.dtd">
<svg version="1.1" id="Layer_1" xmlns="http://www.w3.org/2000/svg" xmlns:xlink="http://www.w3.org/1999/xlink" x="0px" y="0px"
	 width="20px" height="40px" viewBox="0 0 20 40" enable-background="new 0 0 20 40" xml:space="preserve">
<path fill="#939393" d="M2,0C0.9,0,0,0.9,0,2v16c0,1.1,0.9,2,2,2h16c1.1,0,2-0.9,2-2V2c0-1.1-0.9-2-2-2H2z M18.258,16.258
	c0,1.1-0.9,2-2,2H3.742c-1.1,0-2-0.9-2-2V3.742c0-1.1,0.9-2,2-2h12.516c1.1,0,2,0.9,2,2V16.258z"/>
<g>
	<path fill="#47B649" d="M14.832,33.259c0,0.869-0.705,1.571-1.576,1.571H6.739c-0.868,0-1.571-0.704-1.571-1.571v-6.518
		c0-0.867,0.704-1.571,1.571-1.571h6.517c0.871,0,1.576,0.704,1.576,1.571V33.259z"/>
	<path fill="#47B649" d="M2,20c-1.1,0-2,0.9-2,2v16c0,1.1,0.9,2,2,2h16c1.1,0,2-0.9,2-2V22c0-1.1-0.9-2-2-2H2z M18.258,36.258
		c0,1.1-0.9,2-2,2H3.742c-1.1,0-2-0.9-2-2V23.742c0-1.1,0.9-2,2-2h12.516c1.1,0,2,0.9,2,2V36.258z"/>
</g>
</svg>
