<?xml version="1.0" encoding="utf-8"?>
<!-- Generator: Adobe Illustrator 16.0.0, SVG Export Plug-In . SVG Version: 6.00 Build 0)  -->
<!DOCTYPE svg PUBLIC "-//W3C//DTD SVG 1.1//EN" "http://www.w3.org/Graphics/SVG/1.1/DTD/svg11.dtd">
<svg version="1.1" id="Layer_1" xmlns="http://www.w3.org/2000/svg" xmlns:xlink="http://www.w3.org/1999/xlink" x="0px" y="0px"
	 width="20px" height="40px" viewBox="0 0 20 40" enable-background="new 0 0 20 40" xml:space="preserve">
<path fill="#47B649" d="M2,0C0.9,0,0,0.9,0,2v16c0,1.1,0.9,2,2,2h16c1.1,0,2-0.9,2-2V2c0-1.1-0.9-2-2-2H2z M18.258,16.258
	c0,1.1-0.9,2-2,2H3.742c-1.1,0-2-0.9-2-2V3.742c0-1.1,0.9-2,2-2h12.516c1.1,0,2,0.9,2,2V16.258z"/>
<g>
	<path fill="#47B649" d="M2,20c-1.101,0-2,0.9-2,2v16c0,1.1,0.899,2,2,2h16c1.1,0,2-0.9,2-2V22c0-1.1-0.9-2-2-2H2z M18.258,36.258
		c0,1.1-0.9,2-2,2H3.742c-1.101,0-2-0.9-2-2V23.742c0-1.1,0.899-2,2-2h12.516c1.1,0,2,0.9,2,2V36.258z"/>
</g>
<path fill="#44B749" d="M15.439,26.721l-0.883-0.878c-0.127-0.131-0.277-0.193-0.457-0.193c-0.174,0-0.328,0.061-0.455,0.193
	l-5.182,5.184l-2.107-2.107c-0.128-0.13-0.281-0.193-0.458-0.193c-0.176,0-0.329,0.062-0.457,0.193L4.56,29.8
	c-0.126,0.128-0.192,0.281-0.192,0.456c0,0.176,0.066,0.328,0.192,0.453l3.446,3.45c0.128,0.126,0.28,0.191,0.457,0.191
	c0.176,0,0.328-0.063,0.456-0.191l6.521-6.522c0.129-0.129,0.193-0.281,0.193-0.457S15.568,26.852,15.439,26.721L15.439,26.721z"/>
</svg>
